<svg width="45" height="45" viewBox="0 0 45 45" fill="none" xmlns="http://www.w3.org/2000/svg">
<path fill-rule="evenodd" clip-rule="evenodd" d="M12.3501 15.25C12.3501 14.8655 12.5029 14.4967 12.7748 14.2247C13.0467 13.9528 13.4155 13.8 13.8001 13.8H31.2001C31.5847 13.8 31.9535 13.9528 32.2254 14.2247C32.4973 14.4967 32.6501 14.8655 32.6501 15.25C32.6501 15.6346 32.4973 16.0034 32.2254 16.2754C31.9535 16.5473 31.5847 16.7 31.2001 16.7H13.8001C13.4155 16.7 13.0467 16.5473 12.7748 16.2754C12.5029 16.0034 12.3501 15.6346 12.3501 15.25ZM12.3501 22.5C12.3501 22.1155 12.5029 21.7467 12.7748 21.4747C13.0467 21.2028 13.4155 21.05 13.8001 21.05H31.2001C31.5847 21.05 31.9535 21.2028 32.2254 21.4747C32.4973 21.7467 32.6501 22.1155 32.6501 22.5C32.6501 22.8846 32.4973 23.2534 32.2254 23.5254C31.9535 23.7973 31.5847 23.95 31.2001 23.95H13.8001C13.4155 23.95 13.0467 23.7973 12.7748 23.5254C12.5029 23.2534 12.3501 22.8846 12.3501 22.5ZM21.0501 29.7501C21.0501 29.3655 21.2029 28.9967 21.4748 28.7247C21.7467 28.4528 22.1155 28.3001 22.5001 28.3001H31.2001C31.5847 28.3001 31.9535 28.4528 32.2254 28.7247C32.4973 28.9967 32.6501 29.3655 32.6501 29.7501C32.6501 30.1346 32.4973 30.5034 32.2254 30.7754C31.9535 31.0473 31.5847 31.2001 31.2001 31.2001H22.5001C22.1155 31.2001 21.7467 31.0473 21.4748 30.7754C21.2029 30.5034 21.0501 30.1346 21.0501 29.7501Z" fill="black"/>
</svg>
